<svg version="1.1" id="Layer_1" xmlns="http://www.w3.org/2000/svg" xmlns:xlink="http://www.w3.org/1999/xlink" x="0px" y="0px"
	 width="100%" viewBox="0 0 91 96" enable-background="new 0 0 91 96" xml:space="preserve">
<path fill="#1599D5" opacity="1.000000" stroke="none" 
	d="
M1.000000,96.000000 
	C1.000000,64.393410 1.000000,32.786816 1.000000,1.090112 
	C31.215475,1.090112 61.431309,1.090112 92.000000,1.090112 
	C92.000000,15.685678 92.000000,30.374180 91.664337,45.355499 
	C86.999237,44.116886 83.574249,39.660854 78.090736,41.354378 
	C78.090736,42.074711 78.044525,42.572502 78.097443,43.059521 
	C79.800438,58.733501 72.754745,71.144035 59.260319,76.222481 
	C45.316048,81.470207 31.648167,76.928055 22.842543,63.778736 
	C20.468216,60.233189 17.486622,60.728687 14.609664,61.837040 
	C12.600831,62.610935 11.063202,64.607941 9.323077,66.052017 
	C10.968838,68.763557 12.157383,70.721794 13.518920,72.965050 
	C20.402807,68.023132 22.255795,74.892990 26.001894,77.560524 
	C25.261770,79.477928 24.613661,81.156960 23.801380,83.261299 
	C26.064142,84.570541 28.166065,85.786720 30.361580,87.057053 
	C31.304291,85.961143 32.029732,85.064301 32.811501,84.219589 
	C34.730415,82.146194 43.658649,83.538277 43.808697,86.165985 
	C44.198277,92.988632 48.478706,90.850899 52.910683,90.675987 
	C50.831306,83.615891 56.389843,83.850655 60.129936,83.295944 
	C62.232624,82.984085 64.679276,84.991386 67.954895,86.367119 
	C68.891304,85.831154 70.999229,84.624641 73.387489,83.257683 
	C71.312172,79.735909 70.925957,77.337166 74.227684,74.076591 
	C77.552551,70.793159 80.195839,71.040260 83.751785,72.807297 
	C85.083656,70.521759 86.225319,68.562637 87.546043,66.296219 
	C79.929932,62.638863 84.688942,57.705620 85.291801,53.220802 
	C87.756203,52.772316 89.878105,52.386158 92.000000,52.000000 
	C92.000000,66.354225 92.000000,80.708458 91.531342,95.529968 
	C61.041790,95.998169 31.020895,95.999084 1.000000,96.000000 
M68.594048,56.276455 
	C69.256287,56.226875 70.497513,56.185787 70.498383,56.126503 
	C70.572800,51.055298 70.580627,45.981815 70.430138,40.913326 
	C70.424080,40.709053 68.856438,40.551144 67.484070,40.181953 
	C67.303375,40.128757 67.122681,40.075558 67.007515,39.285461 
	C68.303284,35.378616 66.982086,32.855862 63.207146,31.169659 
	C60.191364,29.822556 57.418579,27.938175 54.507801,26.347412 
	C51.558495,24.735596 48.974373,25.024311 46.334663,28.016874 
	C45.892170,28.010147 45.449677,28.003420 44.993694,27.259209 
	C40.860916,24.734882 39.030163,29.380686 35.952072,30.208382 
	C30.990707,31.542484 29.055853,35.003689 29.281149,39.937897 
	C28.326881,40.402931 26.566465,40.831898 26.543797,41.338612 
	C26.331053,46.093723 26.339216,50.865189 26.529970,55.622047 
	C26.549463,56.108135 28.179001,56.529655 29.401402,57.781929 
	C29.483650,59.479710 28.926365,62.186287 29.752790,62.710205 
	C34.805626,65.913460 40.172298,68.621666 46.483582,72.067757 
	C45.033962,68.196480 44.058380,65.591156 43.698013,63.005249 
	C44.108337,63.007923 44.518665,63.010593 45.330082,63.598831 
	C46.166649,65.506157 46.807312,67.542953 47.938984,69.255241 
	C48.374046,69.913513 49.927452,69.832657 51.060410,70.677353 
	C52.156357,70.515831 53.252308,70.354309 54.996628,70.003052 
	C57.967041,68.276169 60.891399,66.463181 63.919186,64.843544 
	C67.978401,62.672161 68.436584,59.752426 66.689377,55.938034 
	C67.129448,55.889660 67.569519,55.841286 68.594048,56.276455 
M35.523956,19.795528 
	C52.085197,13.405428 68.022217,18.905603 75.231583,34.033699 
	C77.285957,38.344620 79.667397,39.150475 82.490250,37.040115 
	C83.809517,34.443886 85.128784,31.847654 86.823631,28.512300 
	C86.069878,27.276100 84.811180,25.211765 83.413673,22.919786 
	C76.378090,27.954853 74.678192,20.892071 70.995338,18.414396 
	C71.758263,16.267147 72.402061,14.455193 73.076180,12.557915 
	C71.290428,11.526192 69.872734,10.675396 68.422195,9.884875 
	C67.852760,9.574547 67.209801,9.399142 66.434029,9.097668 
	C65.552925,10.155231 64.780380,11.235614 63.853752,12.161860 
	C62.092869,13.922025 53.230541,12.172141 53.160336,9.858456 
	C52.950520,2.943973 48.504864,5.215205 44.381279,5.269820 
	C45.493332,11.907275 40.538586,12.380953 36.456139,12.792469 
	C34.447861,12.994905 32.220108,11.020039 29.035490,9.539414 
	C28.165628,10.045115 26.070951,11.262872 23.816275,12.573645 
	C24.603758,14.724640 25.269520,16.543156 26.007553,18.559074 
	C22.085358,21.127008 20.081186,27.993902 13.350838,22.962688 
	C11.962229,25.447800 10.788742,27.547916 9.452765,29.938835 
	C17.387804,33.432938 11.929497,38.343258 11.852105,42.615345 
	C9.630851,43.216717 7.769795,43.720566 5.613954,44.304230 
	C5.763478,46.996433 5.896376,49.389290 6.047932,52.118076 
	C12.184773,50.695591 12.741210,54.867184 13.388109,58.659157 
	C15.806978,58.659157 17.864141,58.659157 19.976543,58.659157 
	C16.107641,39.181927 20.294085,28.456749 35.523956,19.795528 
z"/>
<path fill="#F5FBFD" opacity="1.000000" stroke="none" 
	d="
M92.000000,51.571541 
	C89.878105,52.386158 87.756203,52.772316 85.291801,53.220802 
	C84.688942,57.705620 79.929932,62.638863 87.546043,66.296219 
	C86.225319,68.562637 85.083656,70.521759 83.751785,72.807297 
	C80.195839,71.040260 77.552551,70.793159 74.227684,74.076591 
	C70.925957,77.337166 71.312172,79.735909 73.387489,83.257683 
	C70.999229,84.624641 68.891304,85.831154 67.954895,86.367119 
	C64.679276,84.991386 62.232624,82.984085 60.129936,83.295944 
	C56.389843,83.850655 50.831306,83.615891 52.910683,90.675987 
	C48.478706,90.850899 44.198277,92.988632 43.808697,86.165985 
	C43.658649,83.538277 34.730415,82.146194 32.811501,84.219589 
	C32.029732,85.064301 31.304291,85.961143 30.361580,87.057053 
	C28.166065,85.786720 26.064142,84.570541 23.801380,83.261299 
	C24.613661,81.156960 25.261770,79.477928 26.001894,77.560524 
	C22.255795,74.892990 20.402807,68.023132 13.518920,72.965050 
	C12.157383,70.721794 10.968838,68.763557 9.323077,66.052017 
	C11.063202,64.607941 12.600831,62.610935 14.609664,61.837040 
	C17.486622,60.728687 20.468216,60.233189 22.842543,63.778736 
	C31.648167,76.928055 45.316048,81.470207 59.260319,76.222481 
	C72.754745,71.144035 79.800438,58.733501 78.097443,43.059521 
	C78.044525,42.572502 78.090736,42.074711 78.090736,41.354378 
	C83.574249,39.660854 86.999237,44.116886 91.664337,45.824158 
	C92.000000,47.714359 92.000000,49.428715 92.000000,51.571541 
z"/>
<path fill="#1A212A" opacity="1.000000" stroke="none" 
	d="
M1.000000,96.500000 
	C31.020895,95.999084 61.041790,95.998169 91.531342,95.998627 
	C90.675674,96.333336 89.351898,96.955063 88.026939,96.957596 
	C59.018044,97.013168 30.009008,97.000000 1.000000,96.500000 
z"/>
<path fill="#F7FBFE" opacity="1.000000" stroke="none" 
	d="
M35.179932,19.956833 
	C20.294085,28.456749 16.107641,39.181927 19.976543,58.659157 
	C17.864141,58.659157 15.806978,58.659157 13.388109,58.659157 
	C12.741210,54.867184 12.184773,50.695591 6.047932,52.118076 
	C5.896376,49.389290 5.763478,46.996433 5.613954,44.304230 
	C7.769795,43.720566 9.630851,43.216717 11.852105,42.615345 
	C11.929497,38.343258 17.387804,33.432938 9.452765,29.938835 
	C10.788742,27.547916 11.962229,25.447800 13.350838,22.962688 
	C20.081186,27.993902 22.085358,21.127008 26.007553,18.559074 
	C25.269520,16.543156 24.603758,14.724640 23.816275,12.573645 
	C26.070951,11.262872 28.165628,10.045115 29.035490,9.539414 
	C32.220108,11.020039 34.447861,12.994905 36.456139,12.792469 
	C40.538586,12.380953 45.493332,11.907275 44.381279,5.269820 
	C48.504864,5.215205 52.950520,2.943973 53.160336,9.858456 
	C53.230541,12.172141 62.092869,13.922025 63.853752,12.161860 
	C64.780380,11.235614 65.552925,10.155231 66.434029,9.097668 
	C67.209801,9.399142 67.852760,9.574547 68.422195,9.884875 
	C69.872734,10.675396 71.290428,11.526192 73.076180,12.557915 
	C72.402061,14.455193 71.758263,16.267147 70.995338,18.414396 
	C74.678192,20.892071 76.378090,27.954853 83.413673,22.919786 
	C84.811180,25.211765 86.069878,27.276100 86.823631,28.512300 
	C85.128784,31.847654 83.809517,34.443886 82.490250,37.040115 
	C79.667397,39.150475 77.285957,38.344620 75.231583,34.033699 
	C68.022217,18.905603 52.085197,13.405428 35.179932,19.956833 
z"/>
<path fill="#F1F9FD" opacity="1.000000" stroke="none" 
	d="
M46.999825,27.987507 
	C48.974373,25.024311 51.558495,24.735596 54.507801,26.347412 
	C57.418579,27.938175 60.191364,29.822556 63.207146,31.169659 
	C66.982086,32.855862 68.303284,35.378616 66.690994,39.781815 
	C65.280060,41.166740 64.185638,42.055313 63.055710,42.983582 
	C63.020203,43.023285 62.954655,43.107246 62.875130,43.213387 
	C62.714424,43.591408 62.765831,43.841400 62.954666,44.320602 
	C62.962891,44.739082 62.966278,44.906471 62.596958,45.013172 
	C59.571388,43.290215 58.242165,46.497898 56.301018,46.620312 
	C50.945068,46.958073 45.553886,46.737118 39.450542,46.737118 
	C40.197723,44.112648 40.701435,42.343365 41.493279,40.321709 
	C43.520882,36.042061 45.260353,32.014786 46.999825,27.987507 
z"/>
<path fill="#FAFDFE" opacity="1.000000" stroke="none" 
	d="
M66.040329,56.080547 
	C68.436584,59.752426 67.978401,62.672161 63.919186,64.843544 
	C60.891399,66.463181 57.967041,68.276169 54.490349,69.827377 
	C54.486794,66.475853 54.989513,63.300014 55.492233,60.124176 
	C55.201523,60.077950 54.910812,60.031723 54.620106,59.985497 
	C53.403831,63.353195 52.187561,66.720886 50.971291,70.088585 
	C49.927452,69.832657 48.374046,69.913513 47.938984,69.255241 
	C46.807312,67.542953 46.166649,65.506157 45.097527,62.941170 
	C43.140743,58.098614 41.416523,53.913723 39.308186,48.796528 
	C45.054764,48.796528 49.784790,48.994675 54.488594,48.728832 
	C57.779652,48.542839 58.540829,49.978413 57.893990,53.048096 
	C57.203735,54.405270 56.726200,55.507084 56.248661,56.608894 
	C56.752167,56.790180 57.255669,56.971462 57.759174,57.152748 
	C58.170086,55.761097 58.581001,54.369446 59.173752,52.701218 
	C60.267799,51.963169 61.180004,51.501705 62.253860,51.178673 
	C62.633053,51.499310 62.851620,51.680279 63.096386,52.200722 
	C64.094482,53.721138 65.067406,54.900841 66.040329,56.080547 
z"/>
<path fill="#F5FAFD" opacity="1.000000" stroke="none" 
	d="
M43.082802,62.985828 
	C44.058380,65.591156 45.033962,68.196480 46.483582,72.067757 
	C40.172298,68.621666 34.805626,65.913460 29.752790,62.710205 
	C28.926365,62.186287 29.483650,59.479710 29.187422,57.388580 
	C28.973442,56.995228 28.987053,57.083298 29.379673,57.279560 
	C29.875912,56.985481 29.979530,56.495140 30.044035,56.004818 
	C30.004923,56.004837 30.005028,56.083057 30.385303,56.225365 
	C30.871899,55.911026 30.978216,55.454372 31.051018,55.002357 
	C31.017498,55.006989 31.033821,55.072662 31.277699,55.320625 
	C31.698326,55.418514 31.875076,55.268448 32.350517,54.958473 
	C33.634861,53.108143 34.620514,51.417728 35.606167,49.727310 
	C36.187935,50.175964 36.769703,50.624615 37.351475,51.073265 
	C39.261917,55.044121 41.172359,59.014973 43.082802,62.985828 
z"/>
<path fill="#32A5DA" opacity="1.000000" stroke="none" 
	d="
M43.390411,62.995537 
	C41.172359,59.014973 39.261917,55.044121 37.351475,51.073265 
	C36.769703,50.624615 36.187935,50.175964 35.606167,49.727310 
	C34.620514,51.417728 33.634861,53.108143 32.191166,54.770630 
	C31.527100,54.486191 31.303589,54.245949 31.186306,53.703770 
	C32.385708,50.919525 33.398468,48.422539 34.584396,46.010708 
	C34.857304,45.455696 35.724464,45.192890 36.683556,44.814003 
	C38.034008,43.295719 39.019054,41.759048 40.180183,40.362358 
	C40.356266,40.502338 40.769157,40.675529 40.769157,40.675529 
	C40.769157,40.675529 41.205147,40.574078 41.205147,40.574078 
	C40.701435,42.343365 40.197723,44.112648 39.450542,46.737118 
	C45.553886,46.737118 50.945068,46.958073 56.301018,46.620312 
	C58.242165,46.497898 59.571388,43.290215 62.527924,45.321678 
	C62.585133,47.473995 62.338673,49.257114 62.092209,51.040237 
	C61.180004,51.501705 60.267799,51.963169 58.953506,52.649914 
	C58.551418,52.875195 58.106709,52.792736 58.106709,52.792736 
	C58.540829,49.978413 57.779652,48.542839 54.488594,48.728832 
	C49.784790,48.994675 45.054764,48.796528 39.308186,48.796528 
	C41.416523,53.913723 43.140743,58.098614 44.896980,62.648388 
	C44.518665,63.010593 44.108337,63.007923 43.390411,62.995537 
z"/>
<path fill="#F2F9FD" opacity="1.000000" stroke="none" 
	d="
M40.004105,40.222382 
	C39.019054,41.759048 38.034008,43.295719 36.464256,44.506126 
	C34.429516,42.772228 32.979477,41.364601 31.138229,39.818951 
	C30.482470,39.761555 30.217920,39.842182 29.929960,39.964989 
	C29.906549,40.007164 29.989611,40.056240 29.989611,40.056240 
	C29.055853,35.003689 30.990707,31.542484 35.952072,30.208382 
	C39.030163,29.380686 40.860916,24.734882 44.792110,27.852150 
	C43.061718,32.370853 41.532913,36.296616 40.004105,40.222382 
z"/>
<path fill="#DFF1F9" opacity="1.000000" stroke="none" 
	d="
M31.529442,39.956970 
	C32.979477,41.364601 34.429516,42.772228 36.098850,44.487736 
	C35.724464,45.192890 34.857304,45.455696 34.584396,46.010708 
	C33.398468,48.422539 32.385708,50.919525 31.030319,53.962368 
	C30.845018,54.716999 30.939421,54.894833 31.033821,55.072662 
	C31.033821,55.072662 31.017498,55.006989 30.708683,54.958603 
	C30.268253,55.301163 30.136641,55.692108 30.005028,56.083057 
	C30.005028,56.083057 30.004923,56.004837 29.714813,55.961395 
	C29.278822,56.306400 29.132936,56.694851 28.987053,57.083298 
	C28.987053,57.083298 28.973442,56.995228 29.017429,56.988182 
	C28.179001,56.529655 26.549463,56.108135 26.529970,55.622047 
	C26.339216,50.865189 26.331053,46.093723 26.543797,41.338612 
	C26.566465,40.831898 28.326881,40.402931 29.635380,39.997070 
	C29.989611,40.056240 29.906549,40.007164 29.988005,40.313019 
	C30.556120,40.398235 31.042782,40.177605 31.529442,39.956970 
z"/>
<path fill="#EFF8FC" opacity="1.000000" stroke="none" 
	d="
M62.253860,51.178673 
	C62.338673,49.257114 62.585133,47.473995 62.900627,45.382366 
	C62.966278,44.906471 62.962891,44.739082 62.963837,44.079781 
	C62.968163,43.587872 62.954655,43.107246 62.954655,43.107246 
	C62.954655,43.107246 63.020203,43.023285 63.404572,42.999237 
	C65.198082,42.107338 66.607231,41.239487 68.016373,40.371635 
	C68.856438,40.551144 70.424080,40.709053 70.430138,40.913326 
	C70.580627,45.981815 70.572800,51.055298 70.498383,56.126503 
	C70.497513,56.185787 69.256287,56.226875 68.203293,55.714943 
	C66.232094,54.055626 64.651649,52.957817 63.071209,51.860008 
	C62.851620,51.680279 62.633053,51.499310 62.253860,51.178673 
z"/>
<path fill="#EFF8FC" opacity="1.000000" stroke="none" 
	d="
M40.180183,40.362358 
	C41.532913,36.296616 43.061718,32.370853 44.798855,28.220890 
	C45.449677,28.003420 45.892170,28.010147 46.667244,28.002190 
	C45.260353,32.014786 43.520882,36.042061 41.493279,40.321709 
	C41.205147,40.574078 40.769157,40.675529 40.769157,40.675529 
	C40.769157,40.675529 40.356266,40.502338 40.180183,40.362358 
z"/>
<path fill="#EFF8FC" opacity="1.000000" stroke="none" 
	d="
M51.015850,70.382965 
	C52.187561,66.720886 53.403831,63.353195 54.620106,59.985497 
	C54.910812,60.031723 55.201523,60.077950 55.492233,60.124176 
	C54.989513,63.300014 54.486794,66.475853 54.166164,69.922241 
	C53.252308,70.354309 52.156357,70.515831 51.015850,70.382965 
z"/>
<path fill="#E7F4FB" opacity="1.000000" stroke="none" 
	d="
M63.096386,52.200718 
	C64.651649,52.957817 66.232094,54.055626 67.911057,55.473175 
	C67.569519,55.841286 67.129448,55.889660 66.364853,56.009293 
	C65.067406,54.900841 64.094482,53.721138 63.096386,52.200718 
z"/>
<path fill="#E7F4FB" opacity="1.000000" stroke="none" 
	d="
M67.750221,40.276794 
	C66.607231,41.239487 65.198082,42.107338 63.440079,42.959534 
	C64.185638,42.055313 65.280060,41.166740 66.658234,40.150269 
	C67.122681,40.075558 67.303375,40.128757 67.750221,40.276794 
z"/>
<path fill="#E7F4FB" opacity="1.000000" stroke="none" 
	d="
M62.875130,43.213387 
	C62.954655,43.107246 62.968163,43.587872 62.958992,43.828693 
	C62.765831,43.841400 62.714424,43.591408 62.875130,43.213387 
z"/>
<path fill="#EFF8FC" opacity="1.000000" stroke="none" 
	d="
M57.893990,53.048096 
	C58.106709,52.792736 58.551418,52.875195 58.771667,52.926498 
	C58.581001,54.369446 58.170086,55.761097 57.759174,57.152748 
	C57.255669,56.971462 56.752167,56.790180 56.248661,56.608894 
	C56.726200,55.507084 57.203735,54.405270 57.893990,53.048096 
z"/>
<path fill="#1599D5" opacity="1.000000" stroke="none" 
	d="
M31.277699,55.320625 
	C30.939421,54.894833 30.845018,54.716999 30.906605,54.280571 
	C31.303589,54.245949 31.527100,54.486191 31.892475,54.930542 
	C31.875076,55.268448 31.698326,55.418514 31.277699,55.320625 
z"/>
<path fill="#1599D5" opacity="1.000000" stroke="none" 
	d="
M30.385303,56.225365 
	C30.136641,55.692108 30.268253,55.301163 30.742201,54.953968 
	C30.978216,55.454372 30.871899,55.911026 30.385303,56.225365 
z"/>
<path fill="#1599D5" opacity="1.000000" stroke="none" 
	d="
M29.379673,57.279560 
	C29.132936,56.694851 29.278822,56.306400 29.753925,55.961376 
	C29.979530,56.495140 29.875912,56.985481 29.379673,57.279560 
z"/>
<path fill="#1599D5" opacity="1.000000" stroke="none" 
	d="
M31.138229,39.818951 
	C31.042782,40.177605 30.556120,40.398235 30.011415,40.270840 
	C30.217920,39.842182 30.482470,39.761555 31.138229,39.818951 
z"/>
</svg>